<?xml version="1.0" encoding="iso-8859-1"?>
<!-- Generator: Adobe Illustrator 19.0.0, SVG Export Plug-In . SVG Version: 6.00 Build 0)  -->
<svg version="1.1" id="Layer_1" xmlns="http://www.w3.org/2000/svg" xmlns:xlink="http://www.w3.org/1999/xlink" x="0px" y="0px"
	 viewBox="0 0 512 512" style="enable-background:new 0 0 512 512;" xml:space="preserve">
<g>
	<g>
		<path d="M138.667,138.667c-29.397,0-53.333,23.936-53.333,53.333s23.936,53.333,53.333,53.333S192,221.397,192,192
			S168.064,138.667,138.667,138.667z M138.667,224c-17.643,0-32-14.357-32-32s14.357-32,32-32c17.643,0,32,14.357,32,32
			S156.309,224,138.667,224z"/>
	</g>
</g>
<g>
	<g>
		<path d="M138.667,224c-52.928,0-96,43.072-96,96c0,5.888,4.779,10.667,10.667,10.667H224c5.888,0,10.667-4.779,10.667-10.667
			C234.667,267.072,191.595,224,138.667,224z M64.768,309.333c5.184-36.139,36.373-64,73.92-64c37.547,0,68.715,27.861,73.899,64
			H64.768z"/>
	</g>
</g>
<g>
	<g>
		<path d="M458.667,160H288c-5.888,0-10.667,4.779-10.667,10.667s4.779,10.667,10.667,10.667h170.667
			c5.888,0,10.667-4.779,10.667-10.667S464.555,160,458.667,160z"/>
	</g>
</g>
<g>
	<g>
		<path d="M394.667,224H288c-5.888,0-10.667,4.779-10.667,10.667s4.779,10.667,10.667,10.667h106.667
			c5.888,0,10.667-4.779,10.667-10.667S400.555,224,394.667,224z"/>
	</g>
</g>
<g>
	<g>
		<path d="M458.667,288H288c-5.888,0-10.667,4.779-10.667,10.667s4.779,10.667,10.667,10.667h170.667
			c5.888,0,10.667-4.779,10.667-10.667S464.555,288,458.667,288z"/>
	</g>
</g>
<g>
	<g>
		<path d="M501.333,96H10.667C4.779,96,0,100.779,0,106.667v298.667C0,411.221,4.779,416,10.667,416h64
			c5.888,0,10.667-4.779,10.667-10.667c0-1.515,0.555-3.179,1.771-5.205c2.005-3.349,2.005-7.552,0-10.901
			c-1.216-2.048-1.771-3.712-1.771-5.227c0-5.888,4.779-10.667,10.667-10.667s10.667,4.779,10.667,10.667
			c0,1.515-0.555,3.179-1.771,5.205c-2.005,3.349-2.005,7.552,0,10.901c1.216,2.048,1.771,3.712,1.771,5.227
			c0,5.888,4.779,10.667,10.667,10.667h64c5.888,0,10.667-4.779,10.667-10.667c0-1.515,0.555-3.179,1.771-5.205
			c2.005-3.349,2.005-7.552,0-10.901C192.555,387.179,192,385.515,192,384c0-5.888,4.779-10.667,10.667-10.667
			s10.667,4.779,10.667,10.667c0,1.515-0.555,3.179-1.771,5.205c-2.005,3.349-2.005,7.552,0,10.901
			c1.216,2.048,1.771,3.712,1.771,5.227c0,5.888,4.779,10.667,10.667,10.667h64c5.888,0,10.667-4.779,10.667-10.667
			c0-1.515,0.555-3.179,1.771-5.205c2.005-3.349,2.005-7.552,0-10.901c-1.216-2.048-1.771-3.712-1.771-5.227
			c0-5.888,4.779-10.667,10.667-10.667S320,378.112,320,384c0,1.515-0.555,3.179-1.771,5.205c-2.005,3.349-2.005,7.552,0,10.901
			c1.216,2.048,1.771,3.712,1.771,5.227c0,5.888,4.779,10.667,10.667,10.667h64c5.888,0,10.667-4.779,10.667-10.667
			c0-1.515,0.555-3.179,1.771-5.205c2.005-3.349,2.005-7.552,0-10.901c-1.216-2.048-1.771-3.712-1.771-5.227
			c0-5.888,4.779-10.667,10.667-10.667c5.888,0,10.667,4.779,10.667,10.667c0,1.515-0.555,3.179-1.771,5.205
			c-2.005,3.349-2.005,7.552,0,10.901c1.216,2.048,1.771,3.712,1.771,5.227c0,5.888,4.779,10.667,10.667,10.667h64
			c5.888,0,10.667-4.779,10.667-10.667V106.667C512,100.779,507.221,96,501.333,96z M490.667,394.667h-44.736
			C447.317,391.125,448,387.605,448,384c0-17.643-14.357-32-32-32c-17.643,0-32,14.357-32,32c0,3.605,0.683,7.125,2.069,10.667
			h-46.805c1.387-3.541,2.069-7.061,2.069-10.667c0-17.643-14.357-32-32-32c-17.643,0-32,14.357-32,32
			c0,3.605,0.683,7.125,2.069,10.667h-46.805c1.387-3.541,2.069-7.061,2.069-10.667c0-17.643-14.357-32-32-32
			c-17.643,0-32,14.357-32,32c0,3.605,0.683,7.125,2.069,10.667h-46.805C127.317,391.125,128,387.605,128,384
			c0-17.643-14.357-32-32-32c-17.643,0-32,14.357-32,32c0,3.605,0.683,7.125,2.069,10.667H21.333V117.333h469.333V394.667z"/>
	</g>
</g>
<g>
</g>
<g>
</g>
<g>
</g>
<g>
</g>
<g>
</g>
<g>
</g>
<g>
</g>
<g>
</g>
<g>
</g>
<g>
</g>
<g>
</g>
<g>
</g>
<g>
</g>
<g>
</g>
<g>
</g>
</svg>
